<svg width="30" height="30" viewBox="0 0 30 30" fill="none" xmlns="http://www.w3.org/2000/svg">
    <path
        d="M13.4568 0C14.577 0.0143609 15.6397 0.689325 16.0561 1.79512L23.2366 18.9564C23.3659 19.3298 23.4377 19.7463 23.4233 20.1053C23.407 20.66 23.2319 21.1984 22.9188 21.6566C22.6057 22.1147 22.1677 22.4735 21.6569 22.6903L11.0729 27.0704C10.6995 27.2427 10.3118 27.2858 9.93838 27.2858C9.37709 27.2734 8.83174 27.0967 8.36977 26.7777C7.90779 26.4586 7.54945 26.0112 7.33905 25.4907L0.21603 8.32934C-0.387129 6.87889 0.316556 5.19866 1.78137 4.5955L12.351 0.215414C12.71 0.0861658 13.0834 0 13.4568 0ZM18.4544 0H20.5368C21.2985 0 22.0291 0.302604 22.5677 0.841244C23.1063 1.37988 23.4089 2.11044 23.4089 2.87219V11.9914L18.4544 0ZM26.2955 2.21158L28.2199 3.03016C28.5682 3.172 28.8852 3.38122 29.1525 3.64582C29.4199 3.91042 29.6323 4.22519 29.7778 4.57208C29.9232 4.91897 29.9987 5.29116 30 5.6673C30.0013 6.04344 29.9283 6.41613 29.7852 6.764L26.2955 15.1795V2.21158ZM13.4568 2.8291L2.84408 7.23791L9.98147 24.4854L20.6086 20.091L13.4568 2.8291ZM9.80914 9.03303L14.4477 12.494L13.8158 18.2528L9.17725 14.7774L9.80914 9.03303Z"
        fill="black" />
</svg>
