<svg width="24" height="24" viewBox="0 0 24 24" fill="none" xmlns="http://www.w3.org/2000/svg">
    <path
        d="M19 0H9C7.9 0 7 0.9 7 2V18C7 19.1 7.9 20 9 20H19C20.1 20 21 19.1 21 18V2C21 0.9 20.1 0 19 0ZM19 18H9V2H19V18ZM3 4C3 5 3 22 3 22C3 23.1 3.9 24 5 24C5 24 16 24 17 24C18 24 18 22 17 22C16 22 5 22 5 22C5 22 5 5 5 4C5 3 3 3 3 4ZM14 5L11 10L14 15L17 10L14 5Z"
        fill="black" />
    <path d="M5 21C5 21.5523 5.44772 22 6 22V23H4V21H5Z" fill="black" />
    <path d="M9 17C9 17.5523 9.44772 18 10 18V19H8V17H9Z" fill="black" />
    <path d="M18 18C18.5523 18 19 17.5523 19 17H20V19H18V18Z" fill="black" />
    <path d="M19 3C19 2.44772 18.5523 2 18 2V1H20V3H19Z" fill="black" />
    <path d="M10 2C9.44772 2 9 2.44772 9 3H8V1H10V2Z" fill="black" />
</svg>
