<svg width="22" height="22" viewBox="0 0 22 22" fill="none" xmlns="http://www.w3.org/2000/svg">
<path d="M22 11C22 17.08 17.08 22 11 22C4.92 22 0 17.08 0 11C0 4.92 4.92 0 11 0C17.08 0 22 4.92 22 11ZM12 3.06C14.13 3.33 16.07 4.45 17.37 6.16L19.11 5.16C18.2883 4.00142 17.2292 3.03118 16.0032 2.31388C14.7773 1.59659 13.4126 1.14868 12 1V3.06ZM2.89 5.16L4.63 6.16C5.27455 5.31274 6.08133 4.60228 7.00329 4.07004C7.92526 3.53781 8.94396 3.19446 10 3.06V1C8.58742 1.14868 7.22271 1.59659 5.99675 2.31388C4.77079 3.03118 3.7117 4.00142 2.89 5.16ZM1.89 15.1L3.62 14.1C3.20909 13.1181 2.99749 12.0644 2.99749 11C2.99749 9.93562 3.20909 8.88186 3.62 7.9L1.89 6.9C1.30165 8.18677 0.99714 9.5851 0.99714 11C0.99714 12.4149 1.30165 13.8132 1.89 15.1ZM10 18.94C8.94396 18.8055 7.92526 18.4622 7.00329 17.93C6.08133 17.3977 5.27455 16.6873 4.63 15.84L2.89 16.84C3.7117 17.9986 4.77079 18.9688 5.99675 19.6861C7.22271 20.4034 8.58742 20.8513 10 21V18.94ZM19.11 16.84L17.37 15.84C16.7255 16.6873 15.9187 17.3977 14.9967 17.93C14.0747 18.4622 13.056 18.8055 12 18.94V20.94C14.85 20.65 17.44 19.16 19.11 16.84ZM20.11 15.1C21.3 12.5 21.3 9.5 20.11 6.9L18.38 7.9C18.7909 8.88186 19.0025 9.93562 19.0025 11C19.0025 12.0644 18.7909 13.1181 18.38 14.1L20.11 15.1ZM14 11L11 6L8 11L11 16L14 11Z" fill="black"/>
</svg>
